<svg id="Layer_1" data-name="Layer 1" xmlns="http://www.w3.org/2000/svg" viewBox="0 0 205.64 205.64"><defs><style>.cls-1{fill:#f37b56;}.cls-2{fill:#fff;}</style></defs><title>logo_Server</title><path class="cls-1" d="M11.25,33h60.1a1.59,1.59,0,0,1,1.59,1.59v14.9a0,0,0,0,1,0,0H9.66a0,0,0,0,1,0,0V34.62A1.59,1.59,0,0,1,11.25,33Z"/><path d="M72.94,50.27H9.66a.74.74,0,0,1-.75-.75V37.8a5.52,5.52,0,0,1,5.52-5.52H68.17a5.53,5.53,0,0,1,5.52,5.52V49.52A.75.75,0,0,1,72.94,50.27Zm-62.53-1.5H72.19v-11a4,4,0,0,0-4-4H14.43a4,4,0,0,0-4,4Z"/><path d="M68.17,143.16H14.43a5.52,5.52,0,0,1-5.52-5.52V125.92a.75.75,0,0,1,.75-.75H72.94a.76.76,0,0,1,.75.75v11.72A5.52,5.52,0,0,1,68.17,143.16ZM10.41,126.67v11a4,4,0,0,0,4,4H68.17a4,4,0,0,0,4-4v-11Z"/><path d="M68.36,143.5H14.23a5.33,5.33,0,0,1-5.32-5.32V37.61a5.33,5.33,0,0,1,5.32-5.33H68.36a5.33,5.33,0,0,1,5.33,5.33V138.18A5.33,5.33,0,0,1,68.36,143.5ZM14.23,33.78a3.83,3.83,0,0,0-3.82,3.83V138.18A3.82,3.82,0,0,0,14.23,142H68.36a3.83,3.83,0,0,0,3.83-3.82V37.61a3.84,3.84,0,0,0-3.83-3.83Z"/><path d="M72.94,65.53H9.66a.75.75,0,1,1,0-1.5H72.94a.75.75,0,0,1,0,1.5Z"/><path d="M72.94,81.05H9.66a.75.75,0,1,1,0-1.5H72.94a.75.75,0,0,1,0,1.5Z"/><path d="M72.94,96.15H9.66a.75.75,0,1,1,0-1.5H72.94a.75.75,0,0,1,0,1.5Z"/><path d="M72.94,111.67H9.66a.75.75,0,1,1,0-1.5H72.94a.75.75,0,0,1,0,1.5Z"/><path d="M72.94,126.67H9.66a.75.75,0,0,1,0-1.5H72.94a.75.75,0,0,1,0,1.5Z"/><path d="M16.89,59.57H13.37a.37.37,0,0,1-.37-.38V55.24a.37.37,0,0,1,.37-.37h3.52a.38.38,0,0,1,.38.37v3.95A.38.38,0,0,1,16.89,59.57Zm-3.14-.75h2.77v-3.2H13.75Z"/><path d="M36.94,59.57H19.63a.38.38,0,0,1-.38-.38V55.24a.38.38,0,0,1,.38-.37H36.94a.38.38,0,0,1,.38.37v3.95A.38.38,0,0,1,36.94,59.57ZM20,58.82H36.57v-3.2H20Z"/><path d="M69.27,59.57H65.86a.38.38,0,0,1-.37-.38V55.24a.38.38,0,0,1,.37-.37h3.41a.38.38,0,0,1,.37.37v3.95A.38.38,0,0,1,69.27,59.57Zm-3-.75h2.65v-3.2H66.24Z"/><path d="M69.54,74.73H65.86a.38.38,0,0,1-.37-.38V70.68a.38.38,0,0,1,.37-.38h3.68a.38.38,0,0,1,.38.38v3.67A.38.38,0,0,1,69.54,74.73ZM66.24,74h2.93V71.05H66.24Z"/><path d="M30.62,74.88H13.37A.37.37,0,0,1,13,74.5v-4a.37.37,0,0,1,.37-.37H30.62a.38.38,0,0,1,.38.37v4A.38.38,0,0,1,30.62,74.88Zm-16.87-.75h16.5v-3.2H13.75Z"/><path d="M17.2,90.19H13a.38.38,0,0,1-.38-.38V86.17a.38.38,0,0,1,.38-.38H17.2a.38.38,0,0,1,.37.38v3.64A.38.38,0,0,1,17.2,90.19Zm-3.88-.75h3.5v-2.9h-3.5Z"/><path d="M37.07,90.19H19.75a.38.38,0,0,1-.38-.38V86.17a.38.38,0,0,1,.38-.38H37.07a.38.38,0,0,1,.37.38v3.64A.38.38,0,0,1,37.07,90.19Zm-16.95-.75H36.69v-2.9H20.12Z"/><path d="M69.54,90.19h-4.1a.38.38,0,0,1-.38-.38V86.17a.38.38,0,0,1,.38-.38h4.1a.38.38,0,0,1,.38.38v3.64A.38.38,0,0,1,69.54,90.19Zm-3.73-.75h3.36v-2.9H65.81Z"/><path d="M30.81,105.62H13.31a.38.38,0,0,1-.38-.37v-4a.38.38,0,0,1,.38-.38h17.5a.38.38,0,0,1,.37.38v4A.38.38,0,0,1,30.81,105.62Zm-17.13-.75H30.43v-3.26H13.68Z"/><path d="M17.17,121.14H13a.37.37,0,0,1-.38-.37v-4.16a.38.38,0,0,1,.38-.38h4.16a.38.38,0,0,1,.37.38v4.16A.37.37,0,0,1,17.17,121.14Zm-3.79-.75h3.41V117H13.38Z"/><path d="M37.07,121.14H19.39a.37.37,0,0,1-.38-.37v-4.16a.38.38,0,0,1,.38-.38H37.07a.38.38,0,0,1,.37.38v4.16A.37.37,0,0,1,37.07,121.14Zm-17.31-.75H36.69V117H19.76Z"/><path d="M36.94,44.11H13.37a.37.37,0,0,1-.37-.37V39.65a.37.37,0,0,1,.37-.37H36.94a.38.38,0,0,1,.38.37v4.09A.38.38,0,0,1,36.94,44.11Zm-23.19-.75H36.57V40H13.75Z"/><path d="M69.54,44.08H65.86a.38.38,0,0,1-.37-.37V40a.37.37,0,0,1,.37-.37h3.68a.37.37,0,0,1,.38.37v3.68A.38.38,0,0,1,69.54,44.08Zm-3.3-.75h2.93V40.41H66.24Z"/><path class="cls-2" d="M181.63,110.91A22.63,22.63,0,0,0,160.5,80.1a22.45,22.45,0,0,0-10,2.34A40.21,40.21,0,0,0,72.53,95c-.3,0-.59-.05-.89-.05a23.18,23.18,0,0,0,0,46.35h35v17.18H90.45l24.28,24.28,24.44-24.44H123.64v-.45l-.38.45V125.69H106.59L131.26,101l22.28,23.25c.32.11.63.24,1,.33l.51.51h-.67l.67.7H139.93v15.49H176a15.37,15.37,0,0,0,5,.89,15.65,15.65,0,0,0,.59-31.29Z"/><path d="M114.73,183.52a.77.77,0,0,1-.53-.22L89.92,159a.75.75,0,0,1,.53-1.28h15.43V142.06H71.64a23.93,23.93,0,0,1,0-47.85h.17a41,41,0,0,1,79.13-12.8,23.1,23.1,0,0,1,9.56-2.06,23.37,23.37,0,0,1,22.17,30.88A16.4,16.4,0,0,1,181,143a16,16,0,0,1-5.12-.89h-36a.76.76,0,0,1-.75-.75V125.82a.75.75,0,0,1,.75-.75h13.58l-.2-.08a.67.67,0,0,1-.31-.19l-21.75-22.7L108.4,124.94h14.86a.75.75,0,0,1,.75.75v31.54a.71.71,0,0,1,.31.35h14.85a.74.74,0,0,1,.69.46.76.76,0,0,1-.16.82L115.26,183.3A.79.79,0,0,1,114.73,183.52ZM92.26,159.24l22.47,22.47,22.63-22.63H123.64a.58.58,0,0,1-.19,0,.74.74,0,0,1-.44,0,.75.75,0,0,1-.5-.7V126.44H106.59a.75.75,0,0,1-.69-.46.77.77,0,0,1,.16-.82l24.67-24.67a.74.74,0,0,1,.53-.21h0a.72.72,0,0,1,.53.23L154,123.63l.22.08c.17.06.34.13.52.18a.69.69,0,0,1,.33.19l.51.51a.74.74,0,0,1,.17.81l0,.07a.75.75,0,0,1,0,.64.74.74,0,0,1-.69.46H140.68v14H176a.67.67,0,0,1,.24,0,14.74,14.74,0,0,0,4.76.85,14.9,14.9,0,0,0,.56-29.79.75.75,0,0,1-.67-1,21.88,21.88,0,0,0-30.08-27.53.72.72,0,0,1-.61,0,.73.73,0,0,1-.42-.44A39.47,39.47,0,0,0,73.28,95a.77.77,0,0,1-.24.52.8.8,0,0,1-.54.21l-.37,0-.49,0a22.43,22.43,0,0,0,0,44.85h35a.75.75,0,0,1,.75.75v17.18a.75.75,0,0,1-.75.75Z"/><path class="cls-1" d="M182.26,54.06V49.72h-2.82a15,15,0,0,0-.91-3.48L181,44.81l-2.17-3.76-2.57,1.48a15.31,15.31,0,0,0-2.51-2.45l1.53-2.65-3.76-2.17L170,37.93a15.44,15.44,0,0,0-3.34-.85V33.89h-4.34v3.17a15.31,15.31,0,0,0-3.35.8l-1.57-2.71-3.76,2.17L155.15,40a15.39,15.39,0,0,0-2.55,2.42L150,40.87l-2.17,3.76,2.43,1.4a14.54,14.54,0,0,0-.94,3.48h-2.85v4.34h2.82a15.06,15.06,0,0,0,.91,3.49l-2.47,1.43,2.17,3.75,2.56-1.47A15.25,15.25,0,0,0,155,63.49l-1.53,2.66,3.76,2.17,1.54-2.67a15.44,15.44,0,0,0,3.34.85v3.18h4.34V66.52a14.78,14.78,0,0,0,3.35-.81l1.57,2.71,3.76-2.17-1.52-2.62a15.39,15.39,0,0,0,2.55-2.42l2.59,1.5L180.9,59l-2.43-1.41a14.42,14.42,0,0,0,.94-3.48Zm-17.89,7.23a9.5,9.5,0,1,1,9.5-9.5A9.5,9.5,0,0,1,164.37,61.29Z"/><path d="M166.43,70.43H162.1a.74.74,0,0,1-.75-.75V67.14a17.34,17.34,0,0,1-2.26-.57l-1.23,2.12a.71.71,0,0,1-.46.35.73.73,0,0,1-.56-.07l-3.76-2.17a.76.76,0,0,1-.28-1L154,63.68A15.85,15.85,0,0,1,152.3,62l-2,1.16a.74.74,0,0,1-1-.27l-2.17-3.76a.74.74,0,0,1,.27-1L149.28,57a16,16,0,0,1-.62-2.41h-2.18a.74.74,0,0,1-.75-.75V49.51a.75.75,0,0,1,.75-.75h2.21a15.19,15.19,0,0,1,.65-2.4l-1.87-1.08a.75.75,0,0,1-.28-1l2.17-3.76a.78.78,0,0,1,.46-.35.81.81,0,0,1,.57.08l2.05,1.19a17.84,17.84,0,0,1,1.73-1.65L153,37.7a.75.75,0,0,1,.27-1L157,34.5a.74.74,0,0,1,1,.28L159.3,37a15.24,15.24,0,0,1,2.26-.54V33.89a.75.75,0,0,1,.75-.75h4.34a.76.76,0,0,1,.75.75v2.55a16.07,16.07,0,0,1,2.25.57l1.23-2.13a.76.76,0,0,1,1-.27l3.75,2.17a.72.72,0,0,1,.35.45.75.75,0,0,1-.07.57l-1.21,2.1a15.85,15.85,0,0,1,1.71,1.67l2-1.17a.75.75,0,0,1,.57-.07.69.69,0,0,1,.45.35l2.17,3.76a.74.74,0,0,1-.27,1l-1.92,1.11a15.85,15.85,0,0,1,.62,2.4h2.19a.76.76,0,0,1,.75.75v4.34a.75.75,0,0,1-.75.75h-2.22a15,15,0,0,1-.65,2.41l1.88,1.08a.79.79,0,0,1,.35.45.75.75,0,0,1-.08.57l-2.17,3.76a.74.74,0,0,1-1,.27l-2.06-1.18a16.86,16.86,0,0,1-1.74,1.65l1.19,2.06a.74.74,0,0,1-.27,1l-3.76,2.17a.76.76,0,0,1-.57.08.75.75,0,0,1-.45-.35l-1.26-2.18a16.6,16.6,0,0,1-2.26.55v2.51A.74.74,0,0,1,166.43,70.43Zm-3.58-1.5h2.83V66.52a.75.75,0,0,1,.66-.74,14.81,14.81,0,0,0,3.18-.77.74.74,0,0,1,.91.33l1.19,2.06L174.08,66l-1.14-2a.76.76,0,0,1,.2-1,14.1,14.1,0,0,0,2.42-2.29.75.75,0,0,1,.95-.17l2,1.12,1.42-2.46-1.79-1a.74.74,0,0,1-.31-.94,13.57,13.57,0,0,0,.89-3.3.76.76,0,0,1,.75-.64h2.1V50.47h-2.08a.75.75,0,0,1-.75-.64,13.89,13.89,0,0,0-.85-3.31.75.75,0,0,1,.32-.93L180,44.54l-1.42-2.46-1.91,1.1a.74.74,0,0,1-1-.18,14.58,14.58,0,0,0-2.39-2.32.75.75,0,0,1-.19-1l1.15-2-2.46-1.42-1.16,2a.76.76,0,0,1-.92.33,14.21,14.21,0,0,0-3.18-.81.75.75,0,0,1-.64-.74V34.64h-2.84v2.42a.75.75,0,0,1-.65.74,14.76,14.76,0,0,0-3.19.77.74.74,0,0,1-.91-.33l-1.19-2.06-2.46,1.42,1.14,2a.76.76,0,0,1-.2,1,14.56,14.56,0,0,0-2.42,2.3.75.75,0,0,1-1,.17l-1.95-1.13-1.42,2.47,1.79,1a.75.75,0,0,1,.31.95,13.57,13.57,0,0,0-.89,3.3.76.76,0,0,1-.74.63h-2.1V53.1h2.07a.76.76,0,0,1,.75.65,13.93,13.93,0,0,0,.85,3.3.76.76,0,0,1-.32.94l-1.82,1,1.42,2.46,1.91-1.1a.74.74,0,0,1,1,.17,14.63,14.63,0,0,0,2.39,2.33.74.74,0,0,1,.19,1l-1.15,2,2.46,1.42,1.16-2A.74.74,0,0,1,159,65a14.77,14.77,0,0,0,3.18.81.75.75,0,0,1,.65.74ZM164.37,62a10.25,10.25,0,1,1,10.25-10.25A10.26,10.26,0,0,1,164.37,62Zm0-19a8.75,8.75,0,1,0,8.75,8.75A8.76,8.76,0,0,0,164.37,43Z"/></svg>