<svg id="Layer_1" data-name="Layer 1" xmlns="http://www.w3.org/2000/svg" viewBox="0 0 205.64 205.64"><defs><style>.cls-1{fill:#f37b56;}.cls-2{fill:#231f20;}.cls-3{fill:#ffca5d;}.cls-4{fill:#8fd5e1;}</style></defs><title>logo_Network2</title><path class="cls-1" d="M90.35,65.73A30.66,30.66,0,1,0,121,96.38,30.66,30.66,0,0,0,90.35,65.73Zm0,47.08a16.43,16.43,0,1,1,16.43-16.43A16.42,16.42,0,0,1,90.35,112.81Z"/><path class="cls-2" d="M90.35,127.79a31.41,31.41,0,1,1,31.4-31.41A31.44,31.44,0,0,1,90.35,127.79Zm0-61.31a29.91,29.91,0,1,0,29.9,29.9A29.94,29.94,0,0,0,90.35,66.48Zm0,47.08a17.18,17.18,0,1,1,17.18-17.18A17.19,17.19,0,0,1,90.35,113.56Zm0-32.86A15.68,15.68,0,1,0,106,96.38,15.7,15.7,0,0,0,90.35,80.7Z"/><circle class="cls-1" cx="44.57" cy="141.49" r="16.77"/><path class="cls-2" d="M44.57,159a17.52,17.52,0,1,1,17.52-17.52A17.54,17.54,0,0,1,44.57,159Zm0-33.54a16,16,0,1,0,16,16A16,16,0,0,0,44.57,125.47Z"/><circle class="cls-3" cx="148.1" cy="38.32" r="19.93"/><path class="cls-2" d="M148.1,59a20.68,20.68,0,1,1,20.68-20.68A20.71,20.71,0,0,1,148.1,59Zm0-39.86a19.18,19.18,0,1,0,19.18,19.18A19.2,19.2,0,0,0,148.1,19.14Z"/><path class="cls-2" d="M50.53,68.51A11.57,11.57,0,1,1,62.09,56.94,11.58,11.58,0,0,1,50.53,68.51Zm0-21.63A10.07,10.07,0,1,0,60.59,56.94,10.08,10.08,0,0,0,50.53,46.88Z"/><circle class="cls-3" cx="16.82" cy="86.31" r="3.62"/><path class="cls-2" d="M16.82,90.68a4.37,4.37,0,1,1,4.38-4.37A4.37,4.37,0,0,1,16.82,90.68Zm0-7.25a2.88,2.88,0,1,0,2.88,2.88A2.89,2.89,0,0,0,16.82,83.43Z"/><circle class="cls-3" cx="138.99" cy="96.38" r="6.56"/><path class="cls-2" d="M139,103.69a7.31,7.31,0,1,1,7.31-7.31A7.31,7.31,0,0,1,139,103.69Zm0-13.11a5.81,5.81,0,1,0,5.81,5.8A5.8,5.8,0,0,0,139,90.58Z"/><path class="cls-2" d="M44.57,105a3.65,3.65,0,1,1,3.65-3.65A3.66,3.66,0,0,1,44.57,105Zm0-5.8a2.15,2.15,0,1,0,2.15,2.15A2.15,2.15,0,0,0,44.57,99.24Z"/><path class="cls-2" d="M99.58,22.91a7.18,7.18,0,1,1,7.18-7.18A7.19,7.19,0,0,1,99.58,22.91Zm0-12.86a5.68,5.68,0,1,0,5.68,5.68A5.69,5.69,0,0,0,99.58,10.05Z"/><circle class="cls-4" cx="87.14" cy="47.36" r="4.5"/><path class="cls-2" d="M87.14,52.61a5.26,5.26,0,1,1,5.26-5.25A5.26,5.26,0,0,1,87.14,52.61Zm0-9a3.76,3.76,0,1,0,3.76,3.76A3.76,3.76,0,0,0,87.14,43.6Z"/><path class="cls-2" d="M95.25,180.6a9.15,9.15,0,1,1,9.14-9.14A9.15,9.15,0,0,1,95.25,180.6Zm0-16.79a7.65,7.65,0,1,0,7.64,7.65A7.66,7.66,0,0,0,95.25,163.81Z"/><path class="cls-2" d="M165.21,197.74a26.29,26.29,0,1,1,26.28-26.28A26.31,26.31,0,0,1,165.21,197.74Zm0-51.07A24.79,24.79,0,1,0,190,171.46,24.82,24.82,0,0,0,165.21,146.67Z"/><rect class="cls-2" x="128.96" y="110.69" width="1.5" height="49.84" transform="translate(-57.9 131.42) rotate(-44.99)"/><polygon class="cls-2" points="112.63 75.3 111.56 74.25 133.47 51.89 134.55 52.94 112.63 75.3"/><rect class="cls-2" x="62.72" y="62.29" width="1.5" height="14.59" transform="translate(-30.59 64.76) rotate(-44.7)"/><rect class="cls-2" x="54.22" y="123.19" width="16.85" height="1.5" transform="translate(-69.29 80.6) rotate(-45)"/><circle class="cls-1" cx="184.05" cy="106.75" r="8.4"/><path class="cls-2" d="M184.05,115.9a9.15,9.15,0,1,1,9.15-9.15A9.15,9.15,0,0,1,184.05,115.9Zm0-16.8a7.65,7.65,0,1,0,7.65,7.65A7.66,7.66,0,0,0,184.05,99.1Z"/></svg>