<svg id="Layer_1" data-name="Layer 1" xmlns="http://www.w3.org/2000/svg" viewBox="0 0 205.64 205.64"><defs><style>.cls-1{fill:#f37b56;}.cls-2{fill:#ffca5d;}.cls-3{fill:#97d8e7;}.cls-4{fill:#fff;}</style></defs><title>logo_Network</title><circle class="cls-1" cx="102.92" cy="22.31" r="12.42"/><path d="M102.92,35.48a13.17,13.17,0,1,1,13.17-13.17A13.19,13.19,0,0,1,102.92,35.48Zm0-24.84a11.67,11.67,0,1,0,11.67,11.67A11.68,11.68,0,0,0,102.92,10.64Z"/><path d="M172.48,75.42a13.17,13.17,0,1,1,13.17-13.17A13.19,13.19,0,0,1,172.48,75.42Zm0-24.84a11.67,11.67,0,1,0,11.67,11.67A11.68,11.68,0,0,0,172.48,50.58Z"/><path class="cls-2" d="M102.86,111.9l-7.94-.47s-3.5.18-3.68-4.9-2.49-26.72,11.62-26.72"/><path d="M102.86,112.65h0l-7.95-.47a4.12,4.12,0,0,1-2.65-1.07,6.2,6.2,0,0,1-1.73-4.56c0-.37,0-.84-.07-1.38C90.14,100,89.5,88,95,82.28a10.42,10.42,0,0,1,7.91-3.22.75.75,0,1,1,0,1.5A9,9,0,0,0,96,83.31c-5,5.29-4.39,16.85-4.12,21.78,0,.55,0,1,.07,1.41a4.82,4.82,0,0,0,1.24,3.5,2.52,2.52,0,0,0,1.65.68l8,.47a.75.75,0,0,1,0,1.5Z"/><path class="cls-2" d="M102.4,111.9l7.95-.47s3.49.18,3.68-4.9,2.48-26.72-11.63-26.72"/><path d="M102.4,112.65a.75.75,0,0,1,0-1.5l7.94-.47c.32,0,2.83,0,3-4.18,0-.38,0-.86.07-1.41.26-4.94.89-16.49-4.12-21.78a9,9,0,0,0-6.83-2.75.75.75,0,0,1,0-1.5,10.46,10.46,0,0,1,7.92,3.22c5.45,5.75,4.8,17.76,4.52,22.89,0,.54,0,1-.06,1.38a6.28,6.28,0,0,1-1.73,4.56,4,4,0,0,1-2.74,1.07l-7.86.47Z"/><circle class="cls-1" cx="172.48" cy="143.49" r="12.42"/><path d="M172.48,156.66a13.17,13.17,0,1,1,13.17-13.17A13.19,13.19,0,0,1,172.48,156.66Zm0-24.84a11.67,11.67,0,1,0,11.67,11.67A11.68,11.68,0,0,0,172.48,131.82Z"/><circle class="cls-2" cx="102.92" cy="183.33" r="12.42"/><path d="M102.92,196.5a13.17,13.17,0,1,1,13.17-13.16A13.18,13.18,0,0,1,102.92,196.5Zm0-24.83a11.67,11.67,0,1,0,11.67,11.67A11.68,11.68,0,0,0,102.92,171.67Z"/><circle class="cls-3" cx="33.16" cy="143.49" r="12.42"/><path d="M33.16,156.66a13.17,13.17,0,1,1,13.17-13.17A13.18,13.18,0,0,1,33.16,156.66Zm0-24.84a11.67,11.67,0,1,0,11.67,11.67A11.68,11.68,0,0,0,33.16,131.82Z"/><circle class="cls-2" cx="33.16" cy="62.25" r="12.42"/><path d="M33.16,75.42A13.17,13.17,0,1,1,46.33,62.25,13.18,13.18,0,0,1,33.16,75.42Zm0-24.84A11.67,11.67,0,1,0,44.83,62.25,11.68,11.68,0,0,0,33.16,50.58Z"/><path d="M102.92,136a33.34,33.34,0,1,1,33.34-33.33A33.37,33.37,0,0,1,102.92,136Zm0-65.17a31.84,31.84,0,1,0,31.84,31.84A31.87,31.87,0,0,0,102.92,70.85Z"/><path class="cls-4" d="M98.39,104.21c.46,5.67-4.29,6.79-8.64,8.18s-6.26,9.29-6.26,9.29h38.75s-1.91-7.91-6.26-9.29-9.1-2.51-8.64-8.18"/><path d="M122.24,122.43H83.49a.74.74,0,0,1-.73-.92c.08-.34,2.06-8.34,6.76-9.84l.78-.24c4.15-1.3,7.73-2.42,7.34-7.16a.76.76,0,0,1,.69-.81.75.75,0,0,1,.81.69c.48,5.93-4.23,7.41-8.39,8.71l-.77.24c-3.07,1-4.86,5.79-5.5,7.83h36.77c-.64-2.05-2.44-6.86-5.5-7.83l-.77-.24c-4.16-1.3-8.87-2.78-8.39-8.71a.74.74,0,0,1,.81-.69.76.76,0,0,1,.69.81c-.39,4.74,3.19,5.86,7.34,7.16l.78.24c4.7,1.5,6.68,9.5,6.76,9.84a.74.74,0,0,1-.73.92Z"/><path class="cls-4" d="M102.86,106.06c-3.76,0-3.35-1.72-6.12-4s-1-10.48-1-10.48H97l1.81-3.65L99,91.68h4.64l1.15-1.11.15,1H110s1.78,8.17-1,10.48-2.35,4-6.12,4"/><path d="M102.92,106.81s0,0-.06,0a5,5,0,0,1-4.75-2.27,12.37,12.37,0,0,0-1.85-1.93c-3-2.53-1.43-10.34-1.24-11.22a.74.74,0,0,1,.73-.59h.82l1.59-3.23a.75.75,0,0,1,1.42.29l.16,3.07h3.62l.94-.9a.74.74,0,0,1,1.26.43l0,.34H110a.73.73,0,0,1,.73.59c.2.88,1.79,8.69-1.24,11.22a11.8,11.8,0,0,0-1.84,1.93A5.05,5.05,0,0,1,102.92,106.81ZM96.37,92.3c-.46,2.49-1,7.64.85,9.16a13.93,13.93,0,0,1,2,2.13,3.63,3.63,0,0,0,3.59,1.72.06.06,0,0,1,.06,0,3.65,3.65,0,0,0,3.6-1.72,13.79,13.79,0,0,1,2-2.13c1.83-1.52,1.32-6.67.86-9.16H105a.78.78,0,0,1-.58-.27l-.2.19a.73.73,0,0,1-.52.21H99a.75.75,0,0,1-.75-.71l0-.91-.53,1.07a.73.73,0,0,1-.67.42Z"/><path class="cls-1" d="M112.11,111.08s-.34,10.6-9.25,10.6-9.25-10.6-9.25-10.6l-2.32.82s.93,5.7-.42,9.78H115.5c-2.33-2.85-.63-9.64-.63-9.64Z"/><path d="M115.5,122.43H90.87a.74.74,0,0,1-.61-.31.73.73,0,0,1-.1-.67c1.27-3.86.4-9.38.39-9.43a.76.76,0,0,1,.5-.83l2.31-.81a.76.76,0,0,1,.67.08.77.77,0,0,1,.33.6c0,.4.44,9.87,8.5,9.87s8.49-9.47,8.5-9.87a.77.77,0,0,1,.33-.6.8.8,0,0,1,.67-.09l2.75,1a.76.76,0,0,1,.49.89c-.45,1.79-1.23,6.89.48,9a.74.74,0,0,1-.58,1.22Zm-7.41-1.5h6.11c-1.17-2.75-.53-6.81-.21-8.4l-1.22-.43C112.5,114.1,111.54,118.58,108.09,120.93Zm-16.23,0h5.78c-3.45-2.34-4.41-6.83-4.68-8.82l-.84.29A26,26,0,0,1,91.86,120.93Z"/><path d="M102.92,171.67a.75.75,0,0,1-.75-.75V135.27a.75.75,0,0,1,1.5,0v35.65A.76.76,0,0,1,102.92,171.67Z"/><line class="cls-1" x1="109.03" y1="172.52" x2="166.62" y2="73.2"/><path d="M109,173.27a.74.74,0,0,1-.65-1.12L166,72.82a.75.75,0,1,1,1.29.75L109.68,172.9A.76.76,0,0,1,109,173.27Z"/><line class="cls-1" x1="114.27" y1="176.7" x2="161.57" y2="149.43"/><path d="M114.27,177.45a.75.75,0,0,1-.65-.37.76.76,0,0,1,.28-1l47.3-27.27a.74.74,0,0,1,1,.27.75.75,0,0,1-.28,1l-47.29,27.27A.75.75,0,0,1,114.27,177.45Z"/><path d="M172.48,131.82a.76.76,0,0,1-.75-.75V74.67a.75.75,0,1,1,1.5,0v56.4A.76.76,0,0,1,172.48,131.82Z"/><line class="cls-1" x1="166.62" y1="132.54" x2="109.03" y2="32.66"/><path d="M166.62,133.29a.74.74,0,0,1-.65-.38L108.38,33a.75.75,0,1,1,1.3-.75l57.59,99.87a.76.76,0,0,1-.28,1A.74.74,0,0,1,166.62,133.29Z"/><line class="cls-1" x1="114" y1="27.91" x2="161.7" y2="56.08"/><path d="M161.7,56.83a.75.75,0,0,1-.38-.1l-47.7-28.17a.75.75,0,1,1,.76-1.29l47.7,28.17a.75.75,0,0,1-.38,1.39Z"/><line class="cls-1" x1="161.7" y1="68.42" x2="131.1" y2="86.32"/><path d="M131.1,87.07a.76.76,0,0,1-.65-.38.74.74,0,0,1,.27-1l30.61-17.9a.76.76,0,0,1,1,.27.75.75,0,0,1-.27,1L131.48,87A.76.76,0,0,1,131.1,87.07Z"/><line class="cls-1" x1="162.07" y1="136.73" x2="131.1" y2="119.06"/><path d="M162.07,137.48a.75.75,0,0,1-.38-.1l-31-17.67a.74.74,0,0,1-.28-1,.75.75,0,0,1,1-.28l31,17.67a.75.75,0,0,1,.28,1A.77.77,0,0,1,162.07,137.48Z"/><line class="cls-1" x1="96.81" y1="172.52" x2="39.55" y2="72.89"/><path d="M96.81,173.27a.75.75,0,0,1-.65-.37L38.9,73.26a.75.75,0,0,1,.28-1,.74.74,0,0,1,1,.28l57.26,99.63a.75.75,0,0,1-.28,1A.74.74,0,0,1,96.81,173.27Z"/><line class="cls-1" x1="44.18" y1="67.99" x2="74.82" y2="86.17"/><path d="M74.82,86.92a.75.75,0,0,1-.38-.1L43.79,68.63a.75.75,0,0,1,.77-1.29L75.2,85.53a.74.74,0,0,1-.38,1.39Z"/><line class="cls-1" x1="44.18" y1="55.41" x2="91.84" y2="27.91"/><path d="M44.18,56.16a.76.76,0,0,1-.65-.38.74.74,0,0,1,.27-1L91.46,27.27a.75.75,0,1,1,.75,1.29L44.55,56.06A.74.74,0,0,1,44.18,56.16Z"/><line class="cls-1" x1="96.81" y1="33.12" x2="39.03" y2="132.54"/><path d="M39,133.29a.75.75,0,0,1-.65-1.13L96.16,32.75a.75.75,0,0,1,1-.28.76.76,0,0,1,.28,1L39.68,132.91A.76.76,0,0,1,39,133.29Z"/><path d="M33.16,131.82a.76.76,0,0,1-.75-.75V74.67a.75.75,0,0,1,1.5,0v56.4A.75.75,0,0,1,33.16,131.82Z"/><line class="cls-1" x1="44.18" y1="136.59" x2="74.51" y2="118.65"/><path d="M44.18,137.34a.75.75,0,0,1-.39-1.39L74.13,118a.75.75,0,0,1,1,.26.74.74,0,0,1-.26,1L44.56,137.24A.75.75,0,0,1,44.18,137.34Z"/><line class="cls-1" x1="44.18" y1="149.23" x2="92.42" y2="176.7"/><path d="M92.42,177.45a.74.74,0,0,1-.37-.1L43.81,149.88a.75.75,0,1,1,.74-1.3l48.24,27.47a.75.75,0,0,1,.29,1A.77.77,0,0,1,92.42,177.45Z"/></svg>