<svg id="Layer_1" data-name="Layer 1" xmlns="http://www.w3.org/2000/svg" viewBox="0 0 205.64 205.64"><defs><style>.cls-1{fill:#ffca5d;}.cls-2{fill:#fff;}.cls-3{fill:#231f20;}.cls-4{fill:#97d8e7;}</style></defs><title>logo_Ecofriendly</title><rect class="cls-1" x="41.26" y="107.58" width="131.04" height="85.01"/><path class="cls-2" d="M172.36,104.06H41.59a4.06,4.06,0,0,0-4.05,4v82.06a4.06,4.06,0,0,0,4.05,4.06H172.36a4.06,4.06,0,0,0,4-4.06V108.11A4.06,4.06,0,0,0,172.36,104.06Zm-2.8,87.81H44.21V110.71H169.56Z"/><path class="cls-3" d="M172.36,195H41.59a4.8,4.8,0,0,1-4.8-4.81V108.11a4.81,4.81,0,0,1,4.8-4.81H172.36a4.81,4.81,0,0,1,4.8,4.81v82.06A4.8,4.8,0,0,1,172.36,195ZM41.59,104.8a3.31,3.31,0,0,0-3.3,3.31v82.06a3.31,3.31,0,0,0,3.3,3.31H172.36a3.31,3.31,0,0,0,3.3-3.31V108.11a3.31,3.31,0,0,0-3.3-3.31Zm128,87.82H44.21a.75.75,0,0,1-.75-.75V110.71a.76.76,0,0,1,.75-.75H169.56a.76.76,0,0,1,.75.75v81.16A.75.75,0,0,1,169.56,192.62ZM45,191.12H168.81V111.46H45Z"/><path class="cls-2" d="M21.67,188.87H191.89v3l-6.17,3.78a4.53,4.53,0,0,1-2.35.66H31a4.52,4.52,0,0,1-1.81-.38l-4.88-2.16a4.49,4.49,0,0,1-2.68-4.11Z"/><path class="cls-3" d="M183.37,197.06H31a5.18,5.18,0,0,1-2.12-.45l-4.87-2.15a5.25,5.25,0,0,1-3.13-4.8v-.79a.75.75,0,0,1,.75-.75H191.89a.75.75,0,0,1,.75.75v3a.75.75,0,0,1-.36.64l-6.17,3.78A5.27,5.27,0,0,1,183.37,197.06ZM22.42,189.62v0a3.76,3.76,0,0,0,2.24,3.43l4.87,2.15a3.76,3.76,0,0,0,1.51.32H183.37a3.77,3.77,0,0,0,2-.55l5.81-3.56v-1.83Z"/><path d="M69.66,166.33A4.38,4.38,0,1,1,74,162,4.38,4.38,0,0,1,69.66,166.33Zm0-7.25A2.88,2.88,0,1,0,72.53,162,2.88,2.88,0,0,0,69.66,159.08Z"/><path d="M65.41,150.84a4.38,4.38,0,1,1,4.38-4.38A4.39,4.39,0,0,1,65.41,150.84Zm0-7.26a2.88,2.88,0,1,0,2.88,2.88A2.88,2.88,0,0,0,65.41,143.58Z"/><path d="M91.82,156.71a4.38,4.38,0,1,1,4.38-4.38A4.38,4.38,0,0,1,91.82,156.71Zm0-7.26a2.88,2.88,0,1,0,2.88,2.88A2.88,2.88,0,0,0,91.82,149.45Z"/><path d="M84.57,179.83A4.38,4.38,0,1,1,89,175.45,4.38,4.38,0,0,1,84.57,179.83Zm0-7.25a2.88,2.88,0,1,0,2.88,2.87A2.88,2.88,0,0,0,84.57,172.58Z"/><path d="M122.08,156.71a4.38,4.38,0,1,1,4.38-4.38A4.38,4.38,0,0,1,122.08,156.71Zm0-7.26a2.88,2.88,0,1,0,2.88,2.88A2.88,2.88,0,0,0,122.08,149.45Z"/><path d="M129.34,179.83a4.38,4.38,0,1,1,4.37-4.38A4.38,4.38,0,0,1,129.34,179.83Zm0-7.25a2.88,2.88,0,1,0,2.87,2.87A2.88,2.88,0,0,0,129.34,172.58Z"/><path d="M144.07,166.33a4.38,4.38,0,1,1,4.38-4.37A4.37,4.37,0,0,1,144.07,166.33Zm0-7.25A2.88,2.88,0,1,0,147,162,2.88,2.88,0,0,0,144.07,159.08Z"/><path d="M148.18,150.84a4.38,4.38,0,1,1,4.38-4.38A4.39,4.39,0,0,1,148.18,150.84Zm0-7.26a2.88,2.88,0,1,0,2.88,2.88A2.88,2.88,0,0,0,148.18,143.58Z"/><path class="cls-4" d="M32.3,80.64l6-6a11.21,11.21,0,0,1,7-2.49c4.25,0,8.63,5.18,8.63,5.18l3.42,3.42-6.47,6.47a9.46,9.46,0,0,1-6.28,2.54c-3.81,0-7.08-3.81-7.08-3.81Z"/><path d="M44.64,90.46c-4.11,0-7.51-3.9-7.65-4.07l-5.76-5.75,6.58-6.58a11.92,11.92,0,0,1,7.53-2.71c4.55,0,9,5.22,9.2,5.44l3.91,3.91-7,7A10.16,10.16,0,0,1,44.64,90.46ZM33.36,80.64l4.73,4.73c.07.08,3.14,3.59,6.55,3.59a8.73,8.73,0,0,0,5.74-2.31l5.95-6-2.89-2.89c-.08-.1-4.25-5-8.1-5a10.6,10.6,0,0,0-6.5,2.3Z"/><path d="M67.74,144.45a.74.74,0,0,1-.53-.22.75.75,0,0,1,0-1.06L77,133.38v-40L65.1,81.65H44.84a.75.75,0,0,1,0-1.5H65.41a.75.75,0,0,1,.53.22L78.27,92.51a.73.73,0,0,1,.23.54V133.7a.79.79,0,0,1-.22.53l-10,10A.74.74,0,0,1,67.74,144.45Z"/><path class="cls-4" d="M69.92,39.32l6,6a11.18,11.18,0,0,1,2.49,7c0,4.25-5.18,8.63-5.18,8.63l-3.42,3.41-6.47-6.47a9.43,9.43,0,0,1-2.54-6.28c0-3.8,3.81-7.07,3.81-7.07Z"/><path d="M69.86,65.48l-7-7a10.15,10.15,0,0,1-2.76-6.81c0-4.1,3.9-7.5,4.07-7.64l5.75-5.76,6.58,6.58a11.92,11.92,0,0,1,2.71,7.53c0,4.54-5.22,9-5.44,9.2Zm.06-25.1-4.73,4.74c-.08.07-3.59,3.14-3.59,6.54a8.62,8.62,0,0,0,2.32,5.74l5.94,6,2.89-2.89c.1-.09,5-4.25,5-8.1a10.5,10.5,0,0,0-2.3-6.5Z"/><path d="M72.16,160.09a.75.75,0,0,1-.51-1.3L78.93,152V140a.73.73,0,0,1,.25-.55l6.26-5.76V88.78L69.13,72.64a.76.76,0,0,1-.22-.54V51.87a.75.75,0,0,1,1.5,0V71.79L86.72,87.94a.75.75,0,0,1,.22.53v45.58a.72.72,0,0,1-.24.55l-6.27,5.76v12a.75.75,0,0,1-.23.55l-7.53,7A.78.78,0,0,1,72.16,160.09Z"/><path class="cls-4" d="M49,9.33h8.55a11.24,11.24,0,0,1,6.72,3.19c3,3,2.44,9.76,2.44,9.76v4.84H57.51a9.46,9.46,0,0,1-6.23-2.65C48.59,21.78,49,16.78,49,16.78Z"/><path d="M57.49,27.87A10.13,10.13,0,0,1,50.75,25c-2.9-2.9-2.55-8.06-2.54-8.28V8.58h9.3A11.9,11.9,0,0,1,64.76,12c3.21,3.22,2.68,10.06,2.65,10.35v5.53H57.49ZM49.71,10.08v6.7c0,.1-.31,4.75,2.1,7.16a8.78,8.78,0,0,0,5.69,2.43h8.42V22.28c0-.12.49-6.51-2.22-9.23a10.5,10.5,0,0,0-6.23-3Z"/><path d="M84.57,172.58a.75.75,0,0,1-.75-.75V143.7a.75.75,0,0,1,.22-.53l9.32-9.26V87.37L84,77.91a.78.78,0,0,1-.21-.53V45.32L57,18.44a.75.75,0,0,1,0-1.06.74.74,0,0,1,1.06,0L85.1,44.47a.79.79,0,0,1,.22.54V77.08l9.33,9.46a.72.72,0,0,1,.21.52v47.16a.79.79,0,0,1-.22.54L85.32,144v27.82A.76.76,0,0,1,84.57,172.58Z"/><path class="cls-4" d="M78.21,21.46h8.55a11.18,11.18,0,0,1,6.71,3.2c3,3,2.44,9.75,2.44,9.75v4.84H86.76a9.46,9.46,0,0,1-6.23-2.65c-2.69-2.69-2.32-7.69-2.32-7.69Z"/><path d="M86.74,40A10.11,10.11,0,0,1,80,37.13c-2.9-2.9-2.55-8.06-2.54-8.28V20.71h9.3A11.9,11.9,0,0,1,94,24.12c3.21,3.22,2.68,10.07,2.65,10.36V40H86.74ZM79,22.21v6.7c0,.1-.31,4.75,2.1,7.16a8.8,8.8,0,0,0,5.69,2.43h8.41V34.41c0-.12.5-6.51-2.21-9.23a10.57,10.57,0,0,0-6.23-3Z"/><path class="cls-4" d="M181.36,80.77l-6-6a11.21,11.21,0,0,0-7-2.49c-4.25,0-8.63,5.17-8.63,5.17l-3.42,3.42,6.47,6.47A9.46,9.46,0,0,0,169,89.84c3.81,0,7.08-3.8,7.08-3.8Z"/><path d="M169,90.59a10.16,10.16,0,0,1-6.81-2.76l-7-7,3.95-4c.14-.18,4.61-5.39,9.16-5.39a11.88,11.88,0,0,1,7.5,2.68l6.6,6.6-5.79,5.8C176.53,86.69,173.12,90.59,169,90.59Zm-11.69-9.76,5.94,5.94A8.79,8.79,0,0,0,169,89.09c3.42,0,6.48-3.51,6.51-3.54l4.77-4.78-5.51-5.51h0A10.55,10.55,0,0,0,168.32,73c-3.85,0-8,4.87-8.06,4.92Z"/><path class="cls-4" d="M143.74,39.46l-6.05,6a11.21,11.21,0,0,0-2.49,7c0,4.25,5.18,8.63,5.18,8.63l3.41,3.42,6.48-6.47a9.46,9.46,0,0,0,2.54-6.28c0-3.81-3.81-7.08-3.81-7.08Z"/><path d="M143.79,65.61l-3.94-4c-.18-.14-5.4-4.61-5.4-9.16a11.86,11.86,0,0,1,2.69-7.5l6.6-6.6,5.79,5.79c.13.1,4,3.51,4,7.61a10.16,10.16,0,0,1-2.76,6.81ZM138.22,46A10.57,10.57,0,0,0,136,52.5c0,3.85,4.86,8,4.91,8.06l2.93,2.93,6-5.94a8.8,8.8,0,0,0,2.31-5.75c0-3.42-3.5-6.48-3.54-6.51l-4.77-4.77L138.22,46Z"/><path class="cls-4" d="M164.7,9.47h-8.55a11.17,11.17,0,0,0-6.72,3.19c-3,3-2.44,9.76-2.44,9.76v4.83h9.16a9.42,9.42,0,0,0,6.23-2.64c2.69-2.69,2.32-7.7,2.32-7.7Z"/><path d="M156.16,28h-9.92V22.42c0-.23-.55-7.08,2.66-10.29a11.92,11.92,0,0,1,7.21-3.41h9.34v8.19c0,.16.36,5.33-2.54,8.23A10.14,10.14,0,0,1,156.16,28Zm-8.42-1.5h8.41a8.78,8.78,0,0,0,5.7-2.43C164.27,21.66,164,17,164,17V10.22h-7.8a10.56,10.56,0,0,0-6.19,3c-2.72,2.72-2.22,9.1-2.22,9.16Z"/><path class="cls-4" d="M135.45,21.6H126.9a11.24,11.24,0,0,0-6.72,3.19c-3,3-2.43,9.76-2.43,9.76v4.83h9.15a9.42,9.42,0,0,0,6.23-2.64c2.69-2.69,2.32-7.7,2.32-7.7Z"/><path d="M126.91,40.13H117V34.55c0-.23-.56-7.08,2.65-10.29a11.92,11.92,0,0,1,7.21-3.41h9.34V29c0,.17.36,5.33-2.54,8.23A10.15,10.15,0,0,1,126.91,40.13Zm-8.42-1.5h8.41a8.76,8.76,0,0,0,5.7-2.42c2.42-2.42,2.1-7.06,2.1-7.11V22.35h-7.8a10.52,10.52,0,0,0-6.18,3c-2.72,2.72-2.23,9.1-2.23,9.17Z"/><path d="M94.11,150.28a.75.75,0,0,1-.5-1.3l4.15-3.82v-7.07a.78.78,0,0,1,.23-.54l4-3.82V46.19L86.54,30.57a.75.75,0,0,1,0-1.06.75.75,0,0,1,1.06,0l15.66,15.84a.75.75,0,0,1,.22.53v88.16a.75.75,0,0,1-.24.54l-4,3.82v7.08A.74.74,0,0,1,99,146l-4.4,4.05A.74.74,0,0,1,94.11,150.28Z"/><path d="M119.78,150.28a.74.74,0,0,1-.53-.22l-4.38-4.38a.75.75,0,0,1-.22-.53v-6.89l-4.07-4.07a.75.75,0,0,1-.22-.53V46a.75.75,0,0,1,.22-.53l15.59-15.59a.74.74,0,0,1,1.06,0,.75.75,0,0,1,0,1.06L111.86,46.26v87.09l4.07,4.07a.75.75,0,0,1,.22.53v6.89l4.16,4.16a.74.74,0,0,1,0,1.06A.71.71,0,0,1,119.78,150.28Z"/><path d="M129.34,172.58a.75.75,0,0,1-.75-.75V144l-9.44-9.44a.75.75,0,0,1-.22-.53V87a.75.75,0,0,1,.22-.53l9.39-9.39V44.78a.75.75,0,0,1,.22-.53L155.7,17.31a.75.75,0,0,1,1.06,1.06L130,45.09V77.38a.75.75,0,0,1-.22.53l-9.39,9.39v46.43l9.44,9.44a.75.75,0,0,1,.22.53v28.13A.76.76,0,0,1,129.34,172.58Z"/><path d="M141.23,160.09a.73.73,0,0,1-.53-.22l-7-7a.75.75,0,0,1-.22-.53v-12l-6-6a.75.75,0,0,1-.22-.53V88.19a.75.75,0,0,1,.22-.53l15.36-15.37V52.44a.75.75,0,0,1,1.5,0V72.6a.75.75,0,0,1-.22.53L128.75,88.5v45l6,6a.75.75,0,0,1,.22.53v12l6.75,6.75a.75.75,0,0,1,0,1.06A.74.74,0,0,1,141.23,160.09Z"/><path d="M146,144.26a.74.74,0,0,1-.53-.22l-9.77-9.77a.75.75,0,0,1-.22-.53V93.15a.75.75,0,0,1,.22-.53L148,80.37a.75.75,0,0,1,.53-.22h20.09a.75.75,0,0,1,0,1.5H148.83L137,93.46v40l9.55,9.55a.74.74,0,0,1,0,1.06A.73.73,0,0,1,146,144.26Z"/></svg>