<svg id="Layer_1" data-name="Layer 1" xmlns="http://www.w3.org/2000/svg" viewBox="0 0 205.64 205.64"><defs><style>.cls-1{fill:#231f20;}.cls-2{fill:#8dd5e0;}.cls-3{fill:#f37b56;}.cls-4{fill:#fff;}</style></defs><title>logo_Network3</title><path class="cls-1" d="M61.15,74.3h-25a.75.75,0,0,1-.75-.75v-25a.76.76,0,0,1,.75-.75h25a.75.75,0,0,1,.75.75v25A.74.74,0,0,1,61.15,74.3ZM36.88,72.8H60.4V49.28H36.88Z"/><path class="cls-1" d="M113.64,47.54h-25a.74.74,0,0,1-.75-.75v-25a.75.75,0,0,1,.75-.75h25a.76.76,0,0,1,.75.75v25A.75.75,0,0,1,113.64,47.54ZM89.37,46h23.52V22.52H89.37Z"/><path class="cls-1" d="M166.71,74.3h-25a.74.74,0,0,1-.75-.75v-25a.75.75,0,0,1,.75-.75h25a.76.76,0,0,1,.75.75v25A.75.75,0,0,1,166.71,74.3Zm-24.27-1.5H166V49.28H142.44Z"/><path class="cls-1" d="M61.15,164.05h-25a.75.75,0,0,1-.75-.75v-25a.76.76,0,0,1,.75-.75h25a.75.75,0,0,1,.75.75v25A.74.74,0,0,1,61.15,164.05Zm-24.27-1.5H60.4V139H36.88Z"/><path class="cls-1" d="M166.71,163.13h-25a.74.74,0,0,1-.75-.75v-25a.75.75,0,0,1,.75-.75h25a.76.76,0,0,1,.75.75v25A.75.75,0,0,1,166.71,163.13Zm-24.27-1.5H166V138.11H142.44Z"/><path class="cls-1" d="M113.64,190.46h-25a.75.75,0,0,1-.75-.75v-25a.74.74,0,0,1,.75-.75h25a.75.75,0,0,1,.75.75v25A.76.76,0,0,1,113.64,190.46ZM89.37,189h23.52V165.44H89.37Z"/><path class="cls-1" d="M66.44,190.51H55.86a.75.75,0,0,1-.75-.75V179.18a.75.75,0,0,1,.75-.75H66.44a.74.74,0,0,1,.75.75v10.58A.74.74,0,0,1,66.44,190.51ZM56.61,189h9.08v-9.08H56.61Z"/><rect class="cls-2" x="9.04" y="90.56" width="10.58" height="10.58"/><path d="M19.63,101.89H9a.75.75,0,0,1-.75-.75V90.56A.76.76,0,0,1,9,89.81H19.63a.76.76,0,0,1,.75.75v10.58A.75.75,0,0,1,19.63,101.89Zm-9.84-1.5h9.09V91.31H9.79Z"/><path class="cls-1" d="M169.15,110H158.57a.74.74,0,0,1-.75-.75V98.66a.75.75,0,0,1,.75-.75h10.58a.75.75,0,0,1,.75.75v10.58A.74.74,0,0,1,169.15,110Zm-9.83-1.5h9.08V99.41h-9.08Z"/><rect class="cls-2" x="191.03" y="117.34" width="6.39" height="6.39"/><path d="M197.42,124.49H191a.75.75,0,0,1-.75-.75v-6.4a.75.75,0,0,1,.75-.75h6.39a.76.76,0,0,1,.75.75v6.4A.76.76,0,0,1,197.42,124.49Zm-5.64-1.5h4.89v-4.9h-4.89Z"/><rect class="cls-2" x="65.05" y="96.35" width="6.39" height="6.39"/><path d="M71.44,103.49H65.05a.75.75,0,0,1-.75-.75V96.35a.74.74,0,0,1,.75-.75h6.39a.75.75,0,0,1,.75.75v6.39A.76.76,0,0,1,71.44,103.49ZM65.8,102h4.89V97.1H65.8Z"/><rect class="cls-2" x="117.07" y="68.18" width="6.39" height="6.39"/><path d="M123.46,75.33h-6.39a.75.75,0,0,1-.75-.75v-6.4a.75.75,0,0,1,.75-.75h6.39a.75.75,0,0,1,.75.75v6.4A.75.75,0,0,1,123.46,75.33Zm-5.64-1.5h4.89v-4.9h-4.89Z"/><rect class="cls-3" x="40.95" y="21.77" width="11.36" height="11.36"/><path d="M52.31,33.88H41a.75.75,0,0,1-.75-.75V21.77A.75.75,0,0,1,41,21H52.31a.76.76,0,0,1,.75.75V33.13A.76.76,0,0,1,52.31,33.88ZM41.7,32.38h9.86V22.52H41.7Z"/><path class="cls-1" d="M38.14,118.08h-4a.75.75,0,0,1-.75-.74v-4a.75.75,0,0,1,.75-.75h4a.75.75,0,0,1,.75.75v4A.75.75,0,0,1,38.14,118.08Zm-3.27-1.49h2.52v-2.52H34.87Z"/><rect class="cls-3" x="82.22" y="138.82" width="8.3" height="8.3"/><path d="M90.53,147.87H82.22a.75.75,0,0,1-.75-.75v-8.3a.76.76,0,0,1,.75-.75h8.31a.76.76,0,0,1,.75.75v8.3A.75.75,0,0,1,90.53,147.87ZM83,146.37h6.81v-6.8H83Z"/><path class="cls-1" d="M125.16,151.14h-6.53a.74.74,0,0,1-.75-.75v-6.53a.74.74,0,0,1,.75-.75h6.53a.75.75,0,0,1,.75.75v6.53A.75.75,0,0,1,125.16,151.14Zm-5.78-1.5h5v-5h-5Z"/><rect class="cls-3" x="160.62" y="179.85" width="6.53" height="6.53"/><path d="M167.15,187.14h-6.53a.76.76,0,0,1-.75-.75v-6.54a.76.76,0,0,1,.75-.75h6.53a.75.75,0,0,1,.75.75v6.54A.75.75,0,0,1,167.15,187.14Zm-5.78-1.5h5v-5h-5Z"/><path class="cls-1" d="M154.64,32.06H141.69a.74.74,0,0,1-.75-.75V18.36a.74.74,0,0,1,.75-.75h12.95a.74.74,0,0,1,.75.75v13A.74.74,0,0,1,154.64,32.06Zm-12.2-1.49h11.45V19.11H142.44Z"/><polygon class="cls-3" points="82.91 94.83 101.21 105.77 120.27 94.83 101.58 83.53 82.91 94.83"/><path d="M101.21,106.52a.76.76,0,0,1-.39-.1l-18.3-11a.75.75,0,0,1,0-1.28l18.68-11.3a.72.72,0,0,1,.77,0l18.68,11.3a.71.71,0,0,1,.36.65.74.74,0,0,1-.37.64l-19.06,10.94A.71.71,0,0,1,101.21,106.52ZM84.36,94.82l16.85,10.08,17.58-10.09-17.21-10.4Z"/><polygon class="cls-2" points="101.21 105.77 101.21 127.05 120.27 116.41 120.27 94.83 101.21 105.77"/><path d="M101.21,127.8a.72.72,0,0,1-.38-.1.74.74,0,0,1-.37-.65V105.77a.77.77,0,0,1,.37-.65l19.06-10.94a.77.77,0,0,1,.75,0,.74.74,0,0,1,.37.65v21.58a.74.74,0,0,1-.38.66l-19.06,10.64A.77.77,0,0,1,101.21,127.8Zm.75-21.59v19.57L119.51,116V96.12Z"/><path d="M101.21,127.8a.75.75,0,0,1-.38-.1l-18.3-10.5a.77.77,0,0,1-.37-.65V94.83a.74.74,0,0,1,.37-.65.76.76,0,0,1,.76,0l18.3,10.95a.75.75,0,0,1,.37.64v21.28a.75.75,0,0,1-.38.65A.69.69,0,0,1,101.21,127.8ZM83.66,116.11l16.8,9.65V106.2l-16.8-10Z"/><line class="cls-3" x1="101.13" y1="46.79" x2="101.58" y2="83.53"/><rect x="100.61" y="46.79" width="1.5" height="36.74" transform="translate(-0.8 1.26) rotate(-0.71)"/><path d="M120.64,95.48l-.75-1.3,15.72-9.11A.75.75,0,0,1,136,85h17.46V73.55H155V85.72a.76.76,0,0,1-.75.75h-18Z"/><path d="M155,137.36h-1.5V126.65H136.13a.76.76,0,0,1-.38-.11l-15.87-9.48.77-1.29,15.69,9.38H154.2a.76.76,0,0,1,.75.75Z"/><path d="M49.39,138.82h-1.5V125.76a.75.75,0,0,1,.75-.75H66.4l16.14-9.12.73,1.31L67,126.41a.69.69,0,0,1-.37.1H49.39Z"/><rect x="100.46" y="127.05" width="1.5" height="37.63"/><path d="M82.54,95.48l-16.3-9.13H48.64a.75.75,0,0,1-.75-.75v-12h1.5v11.3h17a.82.82,0,0,1,.37.1l16.46,9.22Z"/><rect class="cls-4" x="64.8" y="123.31" width="4.02" height="4.02"/><path class="cls-1" d="M68.82,128.07h-4a.75.75,0,0,1-.75-.75v-4a.75.75,0,0,1,.75-.75h4a.75.75,0,0,1,.75.75v4A.75.75,0,0,1,68.82,128.07Zm-3.27-1.5h2.52v-2.51H65.55Z"/><rect class="cls-4" x="46.42" y="123.67" width="4.02" height="4.02"/><path class="cls-1" d="M50.44,128.43h-4a.75.75,0,0,1-.75-.75v-4a.75.75,0,0,1,.75-.75h4a.75.75,0,0,1,.75.75v4A.75.75,0,0,1,50.44,128.43Zm-3.27-1.5h2.52v-2.51H47.17Z"/><rect class="cls-4" x="64.8" y="83.87" width="4.02" height="4.02"/><path class="cls-1" d="M68.82,88.64h-4a.76.76,0,0,1-.75-.75v-4a.75.75,0,0,1,.75-.75h4a.75.75,0,0,1,.75.75v4A.76.76,0,0,1,68.82,88.64Zm-3.27-1.5h2.52V84.62H65.55Z"/><rect class="cls-4" x="46.63" y="83.53" width="4.02" height="4.02"/><path class="cls-1" d="M50.65,88.3h-4a.76.76,0,0,1-.75-.75v-4a.75.75,0,0,1,.75-.75h4a.75.75,0,0,1,.75.75v4A.76.76,0,0,1,50.65,88.3Zm-3.27-1.5H49.9V84.28H47.38Z"/><rect class="cls-4" x="134.1" y="83.83" width="4.02" height="4.02"/><path class="cls-1" d="M138.11,88.6h-4a.75.75,0,0,1-.75-.75v-4a.75.75,0,0,1,.75-.75h4a.75.75,0,0,1,.75.75v4A.75.75,0,0,1,138.11,88.6Zm-3.26-1.5h2.51V84.58h-2.51Z"/><rect class="cls-4" x="152.19" y="83.83" width="4.02" height="4.02"/><path class="cls-1" d="M156.21,88.6h-4a.75.75,0,0,1-.75-.75v-4a.75.75,0,0,1,.75-.75h4a.76.76,0,0,1,.75.75v4A.76.76,0,0,1,156.21,88.6Zm-3.27-1.5h2.52V84.58h-2.52Z"/><rect class="cls-4" x="133.97" y="123.91" width="4.02" height="4.02"/><path class="cls-1" d="M138,128.68h-4a.76.76,0,0,1-.75-.75v-4a.76.76,0,0,1,.75-.75h4a.75.75,0,0,1,.75.75v4A.75.75,0,0,1,138,128.68Zm-3.27-1.5h2.52v-2.52h-2.52Z"/><rect class="cls-4" x="152.19" y="123.67" width="4.02" height="4.02"/><path class="cls-1" d="M156.21,128.43h-4a.74.74,0,0,1-.75-.75v-4a.74.74,0,0,1,.75-.75h4a.75.75,0,0,1,.75.75v4A.75.75,0,0,1,156.21,128.43Zm-3.27-1.5h2.52v-2.51h-2.52Z"/></svg>