<svg xmlns="http://www.w3.org/2000/svg" viewBox="0 0 463.97 159.21"><defs><style>.cls-1{fill:#fff;}.cls-2{fill:#27a2db;}</style></defs><title>logo_Artboard 2 copy</title><g id="Black"><g id="Logo"><circle class="cls-1" cx="78.27" cy="24.2" r="10.83"/><circle class="cls-1" cx="29.28" cy="108.09" r="10.83"/><circle class="cls-1" cx="127.37" cy="108.09" r="10.83" transform="translate(-21.43 32.15) rotate(-13.28)"/><path class="cls-1" d="M127.37,40.43a10.83,10.83,0,0,0-10.83,10.84c0,.38,0,.75,0,1.12l-16.24,9.4a28.43,28.43,0,0,0-44.14,0L40.05,52.4a10.55,10.55,0,0,0,.06-1.13,10.85,10.85,0,1,0-4.5,8.78l16.16,9.37a28.42,28.42,0,0,0,22.08,38.32v17.53a10.84,10.84,0,1,0,8.85,0V107.74a28.41,28.41,0,0,0,22.08-38.3L121,60a10.83,10.83,0,1,0,6.35-19.61ZM78.32,97.75A18.14,18.14,0,1,1,96.46,79.61,18.14,18.14,0,0,1,78.32,97.75Z"/><path class="cls-2" d="M166,32h7.69V60h17.44v7H166Z"/><path class="cls-2" d="M194.28,53.74v-.1c0-7.65,5.45-13.94,13.25-13.94,8.94,0,13,6.94,13,14.54,0,.6,0,1.3-.1,2H201.83a6.22,6.22,0,0,0,6.55,5.25,8.78,8.78,0,0,0,6.49-2.75l4.35,3.85a13.42,13.42,0,0,1-10.94,5C200.23,67.58,194.28,61.94,194.28,53.74Zm18.89-2.25c-.45-3.4-2.45-5.7-5.64-5.7s-5.2,2.25-5.8,5.7Z"/><path class="cls-2" d="M224.62,59.29v-.1c0-5.85,4.45-8.55,10.79-8.55a19,19,0,0,1,6.55,1.1v-.45c0-3.15-2-4.9-5.75-4.9a19.62,19.62,0,0,0-7.39,1.45l-1.9-5.79a23.6,23.6,0,0,1,10.39-2.15c4.15,0,7.15,1.1,9.05,3s2.9,4.94,2.9,8.54V67h-7.35v-2.9a10.3,10.3,0,0,1-8.1,3.4C228.77,67.48,224.62,64.58,224.62,59.29Zm17.44-1.75V56.19a11.78,11.78,0,0,0-4.85-1c-3.25,0-5.25,1.3-5.25,3.7V59c0,2,1.7,3.24,4.15,3.24C239.66,62.23,242.06,60.29,242.06,57.54Z"/><path class="cls-2" d="M255.8,40.2h7.6v5.39c1.55-3.69,4.05-6.09,8.54-5.89v7.94h-.39c-5.05,0-8.15,3-8.15,9.45V67h-7.6Z"/><path class="cls-2" d="M276.69,40.2h7.6V44c1.75-2.25,4-4.3,7.84-4.3,5.75,0,9.1,3.8,9.1,9.94V67h-7.6V52c0-3.6-1.7-5.45-4.59-5.45s-4.75,1.85-4.75,5.45V67h-7.6Z"/><path class="cls-2" d="M316.77,39.1H306.13V32h29v7.1H324.47V67h-7.7Z"/><path class="cls-2" d="M333.67,53.74v-.1c0-7.7,6.19-13.94,14.54-13.94s14.44,6.14,14.44,13.84v.1c0,7.7-6.2,13.94-14.54,13.94S333.67,61.44,333.67,53.74Zm21.48,0v-.1a7.12,7.12,0,0,0-7-7.4c-4.35,0-6.95,3.35-6.95,7.3v.1a7.12,7.12,0,0,0,7,7.4C352.55,61,355.15,57.69,355.15,53.74Z"/><path class="cls-1" d="M366.85,59h8.09v8h-8.09Z"/><path class="cls-1" d="M166,73.11h14.5l16.47,20.45V73.11H212.3v46.33H198.53l-17.2-21.38v21.38H166Z"/><path class="cls-1" d="M216.07,101.57v-.13c0-10.79,7.75-19,18.6-19,12.84,0,18.79,8.94,18.79,19.92,0,.8,0,1.72-.06,2.52H230.17a6.75,6.75,0,0,0,6.82,4.83c2.71,0,5-1.26,7.34-3.71l8.07,6.42c-3.57,4.64-8.66,7.88-16.47,7.88C224.08,120.3,216.07,112.82,216.07,101.57Zm23.69-3.31c-.33-3.44-2.38-5.43-5-5.43S230.43,95,230,98.26Z"/><path class="cls-1" d="M259.55,107.33V94.89h-4.23V83.3h4.23V74.24h15V83.3h8.34V94.89h-8.34V104c0,2.71,1.26,3.7,3.64,3.7a11.16,11.16,0,0,0,4.56-1.12v11.58a21.6,21.6,0,0,1-9.59,2C264.32,120.23,259.55,116.13,259.55,107.33Z"/><path class="cls-1" d="M284.11,83.3h14.36l3.71,14.56,4.36-14.69h12L323,98l3.83-14.7H341L329.9,119.7H317.33l-4.83-15.48-5,15.48H295Z"/><path class="cls-1" d="M340.5,101.5v-.13c0-10.19,8.47-18.93,20.38-18.93s20.25,8.61,20.25,18.8v.13c0,10.19-8.47,18.93-20.38,18.93S340.5,111.69,340.5,101.5Zm26.2,0v-.13A6.17,6.17,0,0,0,360.75,95a6,6,0,0,0-5.83,6.29v.13a6.18,6.18,0,0,0,6,6.42A6,6,0,0,0,366.7,101.5Z"/><path class="cls-1" d="M384.51,83.3h15v7.28c2.05-4.89,5.36-8.07,11.32-7.8V98.72h-1.59c-6.36,0-9.73,3.51-9.73,11.52v9.2h-15Z"/><path class="cls-1" d="M413.43,71.13h15V94.42l7.74-11.12h16.35L441.22,98l11.52,21.44H436.66l-5.23-9.93-3,3.84v6.09h-15Z"/></g></g></svg>