<svg xmlns="http://www.w3.org/2000/svg" viewBox="0 0 159.21 159.21"><title>logo_Artboard 5</title><g id="Logomark_on_White" data-name="Logomark on White"><circle cx="79.56" cy="24.13" r="10.83"/><circle cx="30.56" cy="108.02" r="10.83"/><circle cx="128.65" cy="108.02" r="10.83" transform="translate(-21.38 32.45) rotate(-13.28)"/><path d="M128.65,40.37A10.83,10.83,0,0,0,117.82,51.2a10.55,10.55,0,0,0,.06,1.13l-16.25,9.4a28.4,28.4,0,0,0-44.13,0L41.33,52.34A10.83,10.83,0,1,0,36.9,60l16.16,9.38a28.12,28.12,0,0,0-1.91,10.25,28.42,28.42,0,0,0,24,28.07V125.2a10.83,10.83,0,1,0,8.84,0V107.68a28.43,28.43,0,0,0,22.09-38.3L122.31,60a10.83,10.83,0,1,0,6.34-19.61ZM79.6,97.69A18.14,18.14,0,1,1,97.74,79.55,18.14,18.14,0,0,1,79.6,97.69Z"/></g></svg>