<svg xmlns="http://www.w3.org/2000/svg" viewBox="0 0 463.97 159.21"><defs><style>.cls-1{fill:#27a2db;}.cls-2{fill:#231f20;}</style></defs><title>logo_Artboard 2</title><g id="White"><g id="Logo"><circle cx="78.27" cy="24.2" r="10.83"/><circle cx="29.28" cy="108.09" r="10.83"/><circle cx="127.37" cy="108.09" r="10.83" transform="translate(-21.43 32.15) rotate(-13.28)"/><path d="M127.37,40.43a10.83,10.83,0,0,0-10.83,10.84c0,.38,0,.75,0,1.12l-16.24,9.4a28.43,28.43,0,0,0-44.14,0L40.05,52.4a10.55,10.55,0,0,0,.06-1.13,10.85,10.85,0,1,0-4.5,8.78l16.16,9.37a28.42,28.42,0,0,0,22.08,38.32v17.53a10.84,10.84,0,1,0,8.85,0V107.74a28.41,28.41,0,0,0,22.08-38.3L121,60a10.83,10.83,0,1,0,6.35-19.61ZM78.32,97.75A18.14,18.14,0,1,1,96.46,79.61,18.14,18.14,0,0,1,78.32,97.75Z"/><path class="cls-1" d="M166,32h7.7V60h17.44v7H166Z"/><path class="cls-1" d="M194.31,53.74v-.1c0-7.65,5.45-13.94,13.24-13.94,8.95,0,13,6.94,13,14.54,0,.6-.05,1.3-.09,2H201.86a6.2,6.2,0,0,0,6.54,5.25,8.78,8.78,0,0,0,6.5-2.75l4.35,3.84a13.4,13.4,0,0,1-10.95,5C200.26,67.58,194.31,61.93,194.31,53.74Zm18.89-2.25c-.45-3.4-2.45-5.7-5.65-5.7s-5.19,2.25-5.79,5.7Z"/><path class="cls-1" d="M224.64,59.29v-.1c0-5.85,4.45-8.55,10.8-8.55a19,19,0,0,1,6.55,1.1v-.45c0-3.15-2-4.9-5.75-4.9a19.71,19.71,0,0,0-7.4,1.45l-1.9-5.79a23.65,23.65,0,0,1,10.4-2.15c4.15,0,7.14,1.1,9,3s2.9,4.94,2.9,8.54V67h-7.34v-2.9a10.3,10.3,0,0,1-8.1,3.4C228.79,67.48,224.64,64.58,224.64,59.29Zm17.45-1.75V56.19a11.78,11.78,0,0,0-4.85-1c-3.25,0-5.25,1.3-5.25,3.7V59c0,2,1.7,3.24,4.15,3.24C239.69,62.23,242.09,60.29,242.09,57.54Z"/><path class="cls-1" d="M255.83,40.2h7.6v5.39c1.54-3.69,4-6.09,8.54-5.89v7.94h-.4c-5.05,0-8.14,3-8.14,9.45V67h-7.6Z"/><path class="cls-1" d="M276.72,40.2h7.6V44c1.74-2.25,4-4.3,7.84-4.3,5.75,0,9.1,3.8,9.1,9.94V67h-7.6V52c0-3.6-1.7-5.45-4.6-5.45s-4.74,1.85-4.74,5.45V67h-7.6Z"/><path class="cls-1" d="M316.8,39.1H306.16V32h29v7.1H324.5V67h-7.7Z"/><path class="cls-1" d="M333.69,53.74v-.1c0-7.7,6.2-13.94,14.54-13.94s14.45,6.14,14.45,13.84v.1c0,7.7-6.2,13.94-14.55,13.94S333.69,61.44,333.69,53.74Zm21.49,0v-.1a7.12,7.12,0,0,0-7.05-7.4c-4.34,0-6.94,3.35-6.94,7.3v.1a7.12,7.12,0,0,0,7,7.4C352.58,61,355.18,57.69,355.18,53.74Z"/><path d="M366.88,59H375v8h-8.09Z"/><path class="cls-2" d="M166,73.11h14.5l16.47,20.45V73.11H212.3v46.33H198.53l-17.2-21.38v21.38H166Z"/><path class="cls-2" d="M216.07,101.57v-.13c0-10.79,7.75-19,18.6-19,12.84,0,18.79,8.94,18.79,19.92,0,.8,0,1.72-.06,2.52H230.17a6.75,6.75,0,0,0,6.82,4.83c2.71,0,5-1.26,7.34-3.71l8.07,6.42c-3.57,4.64-8.66,7.88-16.47,7.88C224.08,120.3,216.07,112.82,216.07,101.57Zm23.69-3.31c-.33-3.44-2.38-5.43-5-5.43S230.43,95,230,98.26Z"/><path class="cls-2" d="M259.55,107.33V94.89h-4.23V83.3h4.23V74.24h15V83.3h8.34V94.89h-8.34V104c0,2.71,1.26,3.7,3.64,3.7a11.16,11.16,0,0,0,4.56-1.12v11.58a21.6,21.6,0,0,1-9.59,2C264.32,120.23,259.55,116.13,259.55,107.33Z"/><path class="cls-2" d="M284.11,83.3h14.36l3.71,14.56,4.36-14.69h12L323,98l3.83-14.7H341L329.9,119.7H317.33l-4.83-15.48-5,15.48H295Z"/><path class="cls-2" d="M340.5,101.5v-.13c0-10.19,8.47-18.93,20.38-18.93s20.25,8.61,20.25,18.8v.13c0,10.19-8.47,18.93-20.38,18.93S340.5,111.69,340.5,101.5Zm26.2,0v-.13A6.17,6.17,0,0,0,360.75,95a6,6,0,0,0-5.83,6.29v.13a6.18,6.18,0,0,0,6,6.42A6,6,0,0,0,366.7,101.5Z"/><path class="cls-2" d="M384.51,83.3h15v7.28c2.05-4.89,5.36-8.07,11.32-7.8V98.72h-1.59c-6.36,0-9.73,3.51-9.73,11.52v9.2h-15Z"/><path class="cls-2" d="M413.43,71.13h15V94.42l7.74-11.12h16.35L441.22,98l11.52,21.44H436.66l-5.23-9.93-3,3.84v6.09h-15Z"/></g></g></svg>